<svg xmlns="http://www.w3.org/2000/svg" width="31" height="26" viewBox="0 0 31 26"><path d="M29.415 15.323c.1-.128.186-.252.247-.37-.342-.76-1.463-1.88-2.117-2.15-.06.06-.13.143-.205.235-.496-.27-1.328-.59-1.893-.768-.775-4.746-1.568-9.36-1.914-10.777-.11-.456-.645-.844-1.776-.818-1.132.026-2.94.48-5.31.48-2.108 0-2.875-.246-5.062-.143-2.408.116-4.748.875-4.814 1.395-.21 1.665-.764 5.878-1.313 10.223-.56.222-1.497.64-2.167.95-.084-.15-.155-.278-.2-.37-.614.565-1.23 1.304-1.54 2.093.007.126.04.253.092.38-.786 1.963-.898 4.478-.155 5.377.513.622 2.166.858 2.898.492-.112 1.03-.196 1.887-.24 2.492-.028.07-.043.143-.043.222.015 1.775 7.775 1.448 10.96.758.446.15 1.245.136 1.795-.01 4.328 1.064 10.76.75 10.67-.838-.004-.058-.02-.11-.04-.16-.09-.617-.235-1.602-.423-2.822.988.08 2.654-.55 3.06-1.63.416-1.1-.097-3.408-.51-4.24z"/></svg>