<svg xmlns="http://www.w3.org/2000/svg" width="22" height="38" viewBox="0 0 22 38"><path d="M17.02 15.345c.197.24.407.45.63.622 1.286.99 2.933.726 3.858-.26-.843.152-1.785-.355-2.064-1.946-.398-2.28 1.567-7.78-.236-9.27-.72-3.515-10.566-5.862-14.54-3.3C3.92 1.67 3.43 2.3 3.132 2.977c-.045-.08-.08-.146-.1-.192-.187-.407-.494-.14-.308.242.042.086.126.224.242.39-.05.158-.09.32-.122.48-.534-.486-.964-.984-1.206-1.38-.3-.493-.527-.243-.275.153.258.404.78.96 1.438 1.49l-.03.3c-.734-.49-1.315-1.016-1.6-1.337C.77 2.678.58 2.98.91 3.35c.28.313.982.885 1.85 1.395 0 .12 0 .237.01.355-.24-.102-.433-.198-.54-.273-.42-.302-.52-.008-.13.26.15.102.397.212.697.315.134 1.084.616 1.998 1.206 2.327-.198 1.163-.422 2.68-.257 3.45.25 1.17 2.66 2.505 3.254 2.85.5.29 1.236.697 2 .76l.174.478c-.476.358-1.39 1.18-1.873 1.718-.267.036-.49.204-.63.456-.216.118-.375.323-.4.565-.06.11-.087.24-.07.385-.017.072-.01.15.024.228-.53.766-.214 1.466.19 1.575.43.114 1.273-.354 2.286-.964-.008.05-.022.11-.028.166-2.33 1.378-4.73 4.71-4.935 7.422.55 1.232 2.193 1.492 2.776 1.806.583.313 1.373 1.115 2.258 1.353.107.03.21.052.316.07.504 1.293 1.796 3.88 1.765 4.192-.032.324-1.102.723-1.466.884-.567.253-.417.89.26.804.453-.056.826-.12 1.166-.177.34-.057 1.414-.057 1.6-.372.187-.316-.103-.82-.11-1.275-.007-.39.13-1.74.147-2.8 1.15 1.613 2.827 3.95 3.01 4.465.138.39-.004.748.14.94.195.26 1.342.737 1.826.908.768.27 1.1-.438.562-.854-.378-.293-.99-.89-1.285-1.525-.213-.458-.426-3.926-.886-5.87.2-.137.386-.282.55-.438-.31-3.06-1.643-6.748-4.07-9.13 0-.05-.003-.196-.007-.307.482-.377.895-1.258 1.02-2.206.14-1.03-.156-2.035-.824-2.228-.156-.18-.443-.265-.808-.28l-.015-.147c1.978.27 2.893 2.68 5.657 2.513-1.066-.26-1.646-.95-2.17-1.63.322-.025.598-.106.78-.26-.65-.072-1.077-.857-2.46-1.26-.168-.062-.353-.104-.558-.122.157-.037.467-.106.58-.134.782.444 2.37.822 3.53 1.6z"/></svg>