<svg xmlns="http://www.w3.org/2000/svg" width="15" height="37" viewBox="0 0 15 37"><path d="M3.495 7.12c-.042 0-.075.034-.075.076s.034.076.075.076c.042 0 .076-.034.076-.076s-.032-.076-.074-.076zm-.108-2.335c.052 0 .095-.042.095-.096s-.043-.097-.095-.097c-.053 0-.095.043-.095.095 0 .053.042.095.095.095zm-.644.445c0-.05-.04-.09-.09-.09-.05 0-.09.04-.09.09s.04.09.09.09c.05 0 .09-.04.09-.09zm-.45 3.53c-.045 0-.08.034-.085.08-.012-.017-.03-.026-.05-.026-.036 0-.065.03-.065.065s.03.062.065.062c.032 0 .057-.023.063-.053.017.023.044.04.075.04.048 0 .087-.04.087-.086s-.038-.085-.087-.085zm.214-2.34c-.022 0-.04.02-.04.042 0 .015.008.025.02.032-.015.012-.026.03-.026.052 0 .035.03.064.067.064h.006c-.022.01-.038.035-.038.063 0 .04.033.074.073.074s.073-.033.073-.074S2.61 6.6 2.57 6.6l-.01.002c.02-.012.034-.032.034-.056 0-.032-.022-.056-.05-.063.003-.006.008-.013.008-.02 0-.025-.018-.042-.04-.042zm.874 1.417c0-.068-.054-.126-.123-.126s-.124.06-.124.128c0 .07.056.125.125.125s.124-.056.124-.125zm.406-2.92c-.05 0-.09.04-.09.09 0 .05.04.09.09.09.05 0 .09-.04.09-.09 0-.05-.042-.09-.09-.09zm-.068 2.01c0-.073-.058-.13-.13-.13s-.13.057-.13.13.058.13.13.13.13-.06.13-.13zm-.595-5.38c.044 0 .082-.02.107-.054l-.002.006c0 .055.045.1.102.1.056 0 .1-.045.1-.1 0-.058-.044-.105-.1-.105-.03 0-.056.014-.075.034 0-.008.004-.014.004-.02 0-.077-.064-.14-.14-.14s-.137.062-.137.137c0 .077.06.14.138.14zm.38.116c.01 0 .017-.003.024-.004 0 .003-.004.01-.004.017 0 .076.062.14.138.14.078 0 .14-.064.14-.14 0-.078-.063-.14-.14-.14-.03 0-.057.013-.08.03-.01-.035-.038-.06-.076-.06-.043 0-.08.033-.08.077 0 .043.036.078.08.078zm-.557 3.19c-.006-.002-.01-.004-.018-.004-.04 0-.07.03-.07.067 0 .01.002.02.005.025-.012-.006-.026-.013-.04-.013-.04 0-.074.032-.074.072 0 .01.002.022.007.03-.023.005-.04.023-.04.048 0 .028.02.05.05.05.025 0 .047-.02.047-.05v-.006c.002 0 .005.003.008.003.042 0 .074-.034.074-.074 0-.01-.002-.018-.005-.025.01.006.024.01.038.01.04 0 .07-.03.07-.07 0-.007-.002-.014-.004-.02.01.004.023.006.036.006.05 0 .09-.04.093-.09.017.014.037.024.06.024.054 0 .096-.042.096-.095 0-.055-.044-.097-.097-.097-.05 0-.092.04-.094.093-.018-.015-.038-.027-.06-.027-.054 0-.096.044-.096.097 0 .015.004.03.01.043zm.902.303c-.03 0-.054.025-.054.055 0 .026.017.047.04.054-.008.01-.013.02-.013.032 0 .032.026.057.058.057.03 0 .057-.024.057-.057 0-.027-.018-.05-.043-.054.007-.008.012-.018.012-.03 0-.028-.026-.054-.055-.054zm-.274-.48c-.035 0-.062.026-.062.06 0 .037.028.064.063.064.02 0 .04-.012.05-.027 0 .005-.004.014-.004.022 0 .037.03.07.07.07.04 0 .07-.033.07-.07 0-.04-.03-.072-.07-.072-.024 0-.045.014-.06.033.004-.005.006-.012.006-.02 0-.034-.028-.06-.062-.06zm.774-2.448c.02 0 .035-.005.05-.013-.003.013-.007.026-.007.04 0 .06.048.106.107.106.058 0 .105-.046.105-.104s-.046-.106-.104-.106c-.014 0-.027 0-.04.007.008-.015.013-.032.013-.05 0-.07-.055-.123-.122-.123s-.122.054-.122.122c0 .067.055.122.122.122zm.836.9c.04 0 .07-.03.07-.07s-.03-.07-.07-.07-.07.03-.07.07.03.07.07.07zm-.627-.72c0 .07.058.128.13.128.023 0 .044-.007.063-.02-.013.018-.02.037-.02.058 0 .055.042.098.096.098.01 0 .017-.003.025-.005-.004.012-.007.025-.007.04 0 .057.045.103.1.103.01 0 .018-.004.027-.007-.012.017-.02.037-.02.057 0 .058.048.105.106.105s.105-.047.105-.105c0-.06-.045-.105-.103-.105-.01 0-.02.003-.03.006.01-.014.017-.03.017-.05 0-.057-.045-.103-.1-.103-.01 0-.018.004-.027.006.004-.01.007-.023.007-.038 0-.053-.043-.097-.098-.097-.015 0-.028.003-.04.01.017-.023.03-.05.03-.08 0-.073-.06-.13-.13-.13s-.13.057-.13.13zm2.694-.28c.01.122.036.228.08.31-.007-.075.004-.168.028-.27 0 .1.01.205.04.312.023-.195.077-.366.152-.514-.105.265-.12.522 0 .652-.008-.366.268-1.01.803-1.196.536-.187 1.023.01 1.186.22-.02-.117-.063-.214-.13-.295.087.05.163.108.226.182-.04-.12-.094-.224-.158-.31.062.048.116.098.157.153-.02-.11-.062-.213-.117-.305C9.448.876 9.34.725 9.2.612 8.95.284 8.56.06 8.035.232c-.59.196-.86.81-.846 1.503-.024.218-.014.43.027.596 0-.074.013-.14.032-.203zM5.28 3.265c.006 0 .012-.002.017-.004-.002.008-.003.01-.003.018 0 .022.01.04.022.057-.007.015-.012.032-.012.05 0 .062.05.113.114.113.013 0 .024-.004.035-.007-.016.016-.03.037-.03.06 0 .038.025.067.057.078-.01.02-.017.037-.017.06 0 .07.055.126.124.126l.01-.002c-.02.022-.032.05-.032.085 0 .07.058.13.13.13.003 0 .006-.003.01-.003-.02.02-.032.045-.032.075 0 .05.038.092.086.1-.007.013-.013.03-.013.042 0 .037.026.067.06.075-.033.023-.057.058-.057.1 0 .068.055.123.122.123s.122-.055.122-.122c0-.063-.05-.115-.113-.12.014-.014.023-.033.023-.056 0-.032-.02-.06-.048-.072.018-.02.03-.043.03-.07 0-.06-.048-.106-.107-.106.028-.024.047-.06.047-.097 0-.073-.058-.132-.13-.132-.005 0-.01.003-.014.004.018-.023.03-.05.03-.08 0-.07-.056-.126-.125-.126V3.55c0-.044-.035-.08-.08-.08-.008 0-.015.003-.022.004.03-.02.05-.052.05-.09 0-.048-.03-.088-.07-.106 0-.047-.037-.085-.082-.085-.013 0-.025.005-.035.01 0-.035-.028-.063-.063-.063-.036 0-.064.027-.064.063 0 .033.027.06.062.06zm-2.83 3.14c.038 0 .068-.03.068-.067 0-.033-.024-.06-.056-.065.023-.012.04-.035.04-.062 0-.03-.02-.055-.046-.064.004-.008.007-.015.007-.026 0-.022-.013-.04-.034-.044.02-.007.036-.026.036-.05 0-.027-.022-.05-.05-.05-.03 0-.052.022-.052.05 0 .026.018.045.04.05-.017.008-.03.024-.03.043 0 .013.008.025.018.034-.016.013-.028.032-.028.055 0 .032.026.06.058.065-.02.013-.036.034-.036.06 0 .037.03.07.068.07zm1.09 1c0-.072-.06-.132-.133-.132s-.132.06-.132.133c0 .05.028.09.068.114-.03.005-.055.034-.055.067 0 .04.032.07.07.07.04 0 .07-.03.07-.07 0-.02-.007-.036-.02-.05.075 0 .134-.06.134-.132zm-.4.546c-.042 0-.076.036-.076.077v.008l-.01-.002c-.058 0-.104.046-.104.103 0 .02.006.035.015.05-.01-.004-.02-.006-.03-.006-.054 0-.098.042-.098.097 0 .053.044.097.097.097.054 0 .098-.044.098-.097 0-.018-.005-.03-.012-.046.01.007.022.01.034.01.057 0 .103-.046.103-.104 0-.012-.003-.023-.007-.033.037-.006.066-.036.066-.075 0-.042-.034-.077-.076-.077zm.755-6.036c.02 0 .04-.007.056-.017.01.04.044.07.09.07.01 0 .02-.002.03-.006 0 .008-.003.014-.003.02 0 .05.042.092.092.092s.09-.04.09-.092c0-.05-.04-.09-.09-.09-.01 0-.02 0-.03.004l.002-.02c0-.052-.042-.094-.095-.094-.013 0-.026.002-.038.008-.01-.054-.053-.096-.108-.096-.06 0-.11.05-.11.112s.05.11.11.11zm-.025 3.45c-.057 0-.103.045-.103.104 0 .047.033.086.078.098-.02.008-.034.03-.034.053 0 .02.01.04.03.05-.026.016-.043.04-.043.074 0 .027.013.05.033.066-.038.014-.064.05-.064.093 0 .056.044.1.1.1.056 0 .1-.044.1-.1 0-.034-.018-.063-.044-.08.03-.016.05-.045.05-.08 0-.04-.026-.07-.062-.082.01-.01.018-.024.018-.04 0-.025-.014-.046-.035-.055.044-.012.078-.05.078-.098 0-.058-.044-.103-.1-.103zm-.027.64c-.052 0-.096.045-.096.098 0 .033.017.062.04.078-.016.01-.028.03-.028.053 0 .02.007.034.018.045-.046.004-.084.04-.084.09 0 .03.016.056.04.072-.052 0-.094.042-.094.095 0 .034.02.063.047.08-.033.005-.058.032-.058.066 0 .04.03.07.068.07s.067-.03.067-.07c0-.02-.01-.037-.026-.052.05 0 .09-.042.09-.093 0-.033-.018-.063-.044-.08.05 0 .088-.04.088-.088 0-.03-.015-.055-.037-.07.03-.006.055-.032.055-.063 0-.014-.006-.026-.014-.037.04-.013.07-.048.07-.092 0-.052-.044-.096-.098-.096zm-.956 2.49c0-.064-.05-.114-.114-.114s-.114.05-.114.112c0 .026.01.05.024.068-.035.005-.062.035-.062.07 0 .013.004.023.01.033-.013-.004-.026-.008-.04-.008-.052 0-.095.042-.095.096-.01-.003-.02-.006-.032-.006-.04 0-.074.035-.074.076 0 .04.034.074.076.074.04 0 .07-.03.075-.066.015.01.033.018.053.018.052 0 .095-.042.095-.095 0-.02-.007-.034-.017-.05.008.003.016.005.025.005.04 0 .074-.032.074-.073 0-.008-.002-.017-.005-.025l.01.002c.063 0 .113-.05.113-.116zM.374 4.79c.05 0 .09-.038.09-.09 0-.032-.02-.062-.05-.076.033-.014.056-.046.056-.083 0-.05-.04-.09-.09-.09-.05 0-.088.04-.088.09 0 .036.02.064.047.08-.035.013-.057.045-.057.08 0 .053.04.09.09.09zm-.018.28c.054 0 .098-.044.098-.098 0-.024-.01-.047-.026-.064.002-.006.004-.013.004-.02 0-.037-.03-.067-.067-.067-.038 0-.068.03-.068.07 0 .002 0 .004.002.007-.026.02-.04.045-.04.076 0 .054.042.098.095.098zm-.048.576c.064 0 .116-.05.116-.115 0-.042-.024-.077-.06-.1.036-.013.062-.047.062-.09s-.03-.08-.07-.09c.016-.015.026-.03.026-.054 0-.04-.032-.072-.07-.072s-.07.032-.07.072c0 .026.017.05.04.06-.03.02-.05.05-.05.086 0 .034.018.062.044.08-.05.015-.085.058-.085.11 0 .066.055.116.12.116zM.54 4.09c0-.04-.03-.072-.07-.072-.04 0-.07.032-.07.07 0 .04.03.07.07.07.04 0 .07-.03.07-.07zM.32 6.144c.07 0 .128-.058.128-.128 0-.05-.03-.095-.075-.114.03-.023.048-.055.048-.094 0-.066-.05-.12-.117-.12-.065 0-.12.054-.12.12 0 .046.03.084.068.105-.032.022-.055.06-.055.102 0 .07.057.128.127.128zm.076-1.73c.047 0 .084-.04.084-.085 0-.02-.005-.03-.013-.044.018-.013.03-.032.03-.055 0-.036-.03-.067-.067-.067-.038 0-.068.03-.068.068 0 .008.002.015.004.02-.03.014-.053.045-.053.08 0 .045.038.084.083.084zM.47 6.48c0-.046-.026-.086-.063-.108.02-.02.036-.048.036-.078 0-.06-.047-.106-.105-.106-.06 0-.106.047-.106.106 0 .032.016.06.04.08-.037.022-.062.062-.062.106 0 .07.058.13.13.13.072 0 .13-.058.13-.13zm.265 1.23c0-.085-.07-.155-.157-.155-.086 0-.157.07-.157.156 0 .09.07.16.16.16.086 0 .156-.07.156-.16zm12.91.32c-.63-.773-2.058-1.632-3.083-2.146.514-.305.912-.953.912-1.632 0-1.132-.915-2.05-2.045-2.05s-2.047.918-2.047 2.05c0 .118.012.232.03.346-.142.036-.234.06-.358.13.048-.455.02-1.633-.05-1.816-.032.097-.09.216-.145.292.015-.145.015-.266-.02-.394-.173.655-.437 1.298-.754 1.9-.012-.01-.012-.03-.028-.034.007-.013.012-.028.012-.043 0-.046-.037-.084-.084-.084-.046 0-.084.036-.084.082 0 .03.017.056.04.07-.02.023-.034.052-.034.086 0 .048.034.08.076.1-.26.47-.544.913-.853 1.3.08-.037.17-.1.27-.183-.145.183-.28.342-.397.45.146-.04.304-.13.462-.253-.185.203-.342.35-.43.425.106-.013.215-.05.323-.106-.06.05-.118.097-.177.14.096-.014.19-.045.287-.09.116 0 .24-.03.366-.093-.004.055-.008.11-.008.166 0 .83.478 1.55 1.172 1.894-.166 2.175-.753 6.215-1.145 7.874-.302-.07-.69.01-1.018.358-.204.217-.79 1.064-1.548 1.91-.575.642-1.105 1.248-1.347 1.546-.578.712-.555 1.414.065 1.693.702.315 1.575.57 2.02.756-.467 1.736-.937 3.613-1.192 5.142-.603 1.26-.01 3.538-.084 4.052-.04.267-1.047 1.918-1.6 2.836-.23.05-.43.096-.576.135 0 .487-.032 1.18-.023 1.286l.3-.003c0 .125-.003.28.09.294.113.016 1.405.106 1.55.106.146 0 .183-.062.23-.265.845.3 3.734.854 4.927.05.574-.386.356-.91-.23-.906-.322.003-.698.04-.958.06.02-.423-.01-.97-.086-1.46-.037-.003-.08-.005-.124-.006.146-.498.46-1.343.47-1.718.012-.494-.33-1.173-.472-1.457.374.374.903.88.97 1.23.06.33-.256 1.19-.362 1.85l-.163.05c0 .178-.04.82-.065 1.1.063-.003.146-.01.246-.02-.003.086.008.17.105.185.124.016 1.257.042 1.37.05.114.003.177-.164.204-.246 1.488.493 3.38.59 4.073-.148.492-.524.23-1.104-.343-.98-.28.057-.527.167-.993.26.033-.336.048-1 .01-1.283-.112.013-.244.03-.39.057.08-.563.078-1.063-.15-1.498-.305-.58-3.11-2.367-3.974-3.44.104-1.108.244-2.62.385-4.196l.014.007c.495.298.933 1.095.92 1.597-.015.57-.16 1.138-.514 1.865-.447.92.534 1.374.963.63.052-.093.1-.204.144-.326-.05.29-.1.508-.123.65-.1.63.48.964.833.573.523.077.908-.325 1.008-.888.777-.497.49-2.984-1.017-4.357-.693-.632-1.37-1.07-2.085-1.316.1-1.14.197-2.248.275-3.197.84 1.08 2.682 2.824 3.675 3.516.673.47 1.433.277 1.426-.53-.01-.86-.16-2.297-.565-2.923.068-.062.12-.127.146-.195-.007-.23-.096-1.058-.112-1.19-.01-.08-.074-.146-.14-.192.03-.046.058-.092.08-.144.444-1.004 1.167-1.744 1.236-2.313.075-.615-.61-1.93-2.228-2.525-.177-.065-.374-.113-.535-.14.418-.44.715-.655.677-.793-.118-.436-2.323.22-3.506 1.644.126-1.684 1.21-3.23 2.984-3.42.456-.05.594-.27.434-.81-.113-.385-.214-.792-.365-1.15.573.68 1.352 1.43 1.728 1.75.66.56 1.183.783 1.535.56.43-.276.24-1.362-.406-2.15zM4.462 21.082c-.468-.104-.944-.216-1.263-.33.567-.588 1.625-1.533 1.86-1.833-.16.597-.37 1.34-.597 2.16zm4.87-7.096c.383.368.85.694 1.327 1.172.04.59-.25.973-.36 1.547-.076.392 0 .714.16.937-.057.082-.096.2-.084.307.017.144.105.837.18 1.194.015.014.03.024.05.037-.082.138-.114.34-.083.54.01.06.032.165.063.294-.577-.542-1.446-1.547-1.86-2.083.26-.62.505-1.42.54-1.746-.318.01-.72.305-.9.53-.053-.032-.148-.067-.254-.1.312-1.016.737-1.89 1.22-2.63zM.61 7.416c0-.073-.06-.133-.13-.133-.074 0-.134.06-.134.133s.06.132.133.132c.07 0 .13-.06.13-.132zm-.086-.312c0-.047-.026-.085-.063-.106.03-.02.05-.054.05-.09 0-.057-.04-.1-.09-.112.02-.015.03-.036.03-.063 0-.048-.037-.084-.083-.084-.047 0-.084.034-.084.082 0 .033.02.063.05.075-.034.022-.057.057-.057.1 0 .04.022.074.055.096-.03.022-.054.06-.054.1 0 .07.056.126.125.126.07 0 .125-.056.125-.127zm.054-3.17c0-.042-.035-.078-.08-.078-.042 0-.078.036-.078.078 0 .044.036.08.08.08.043 0 .078-.036.078-.08zm1.19 4.934c-.053 0-.096.044-.096.097 0 .055.043.098.097.098.052 0 .096-.043.096-.098 0-.053-.044-.097-.098-.097zm.13-7.222c.01.005.02.007.033.007.05 0 .088-.038.088-.087l-.003-.014c.016.008.032.013.05.013.058 0 .104-.047.104-.106 0-.01-.004-.023-.007-.03.018.01.04.02.063.02.058 0 .105-.046.105-.104s-.045-.107-.103-.107c-.06 0-.105.047-.105.105 0 .01.004.02.007.03-.02-.013-.04-.022-.065-.022-.058 0-.105.048-.105.104 0 .01.003.02.005.026-.01-.004-.02-.007-.032-.007-.04 0-.075.03-.082.072-.033 0-.06.025-.06.06 0 .034.027.063.06.063.02 0 .04-.01.05-.026zM.6 3.776c0-.03-.025-.058-.057-.058-.03 0-.057.027-.057.058 0 .03.025.057.057.057S.6 3.808.6 3.776zm1.272 5.152c0 .048.04.086.086.086s.086-.038.086-.086c0-.05-.04-.088-.086-.088s-.086.04-.086.088zm.543-2.973c.044 0 .08-.036.08-.08 0-.022-.01-.04-.025-.056.018-.015.03-.035.03-.06 0-.04-.032-.073-.073-.073-.04 0-.073.032-.073.074 0 .02.008.037.02.05-.022.015-.037.038-.037.064 0 .044.035.08.078.08zm.033-.267c.053 0 .095-.042.095-.095 0-.013-.003-.024-.006-.033.03-.008.055-.036.055-.07 0-.003 0-.005-.002-.007.02-.013.035-.033.035-.06 0-.037-.03-.066-.068-.066s-.068.03-.068.067c-.028.012-.046.037-.046.066l.002.01c-.052 0-.094.04-.094.094s.043.094.095.094zm.046-4.362c.012.01.028.018.046.018.034 0 .062-.025.07-.056.004.044.04.077.083.077.028 0 .052-.014.068-.035.01.045.045.078.09.078.05 0 .093-.04.093-.092s-.04-.09-.09-.09c-.03 0-.057.015-.074.037-.01-.04-.043-.07-.085-.07s-.075.03-.083.07c-.004-.037-.033-.067-.07-.067-.032 0-.058.02-.068.05-.012-.01-.027-.018-.042-.018-.04 0-.07.033-.07.07 0 .04.03.07.07.07.028.002.054-.015.064-.042zM1.558 9.03c.057 0 .103-.047.103-.103 0-.057-.043-.104-.1-.104-.058 0-.104.047-.104.104 0 .056.046.104.103.104zM.6 3.698c.042 0 .075-.034.075-.075 0-.024-.01-.044-.028-.06.032-.007.056-.036.056-.07 0-.026-.013-.047-.032-.062.038 0 .066-.03.066-.065 0-.013-.005-.025-.012-.037.023-.01.04-.033.04-.06 0-.027-.017-.052-.04-.063.006.004.013.006.02.006.035 0 .062-.027.062-.062 0-.01-.003-.02-.007-.028.022-.01.04-.03.04-.057 0-.01-.003-.02-.008-.027h.003c.036 0 .064-.03.064-.065 0-.01-.006-.023-.013-.032.026-.008.045-.03.045-.058 0-.016-.006-.03-.016-.04l.007.002c.045 0 .08-.036.08-.08 0-.042-.035-.08-.078-.08s-.08.038-.08.08c0 .024.01.044.026.06-.03 0-.057.025-.057.058 0 .01.004.02.01.03-.03.006-.053.03-.053.062 0 .013.004.023.01.033-.033 0-.06.027-.06.06 0 .01.004.018.007.025-.024.007-.043.03-.043.057 0 .023.016.045.037.056C.71 3.2.704 3.2.695 3.2c-.037 0-.067.03-.067.066 0 .014.005.025.012.037-.025.01-.04.035-.04.06 0 .022.01.04.024.053-.04 0-.074.034-.074.076 0 .022.013.044.03.058-.032.01-.056.037-.056.072 0 .04.034.075.076.075zm.41-1.02c.052 0 .093-.04.093-.092 0-.015-.005-.03-.012-.043h.003c.045 0 .08-.035.08-.082 0-.014-.004-.026-.01-.04.027-.003.05-.026.05-.056 0-.007-.003-.012-.005-.02.003.002.006.003.01.003.032 0 .06-.026.06-.06 0-.005-.003-.01-.003-.013l.013.002c.066 0 .12-.054.12-.12 0-.005-.003-.01-.004-.014.007.004.013.006.02.006.06 0 .107-.048.107-.108 0-.02-.006-.036-.015-.052l.018.002c.05 0 .09-.038.09-.09.004.003.01.004.016.004.046 0 .085-.038.085-.086 0-.008-.002-.015-.004-.022.01.004.018.005.027.005.04 0 .07-.03.07-.07 0-.04-.032-.07-.07-.07s-.07.03-.07.07c0 .006 0 .01.002.013-.013-.007-.027-.012-.04-.012-.05 0-.086.04-.087.085-.006 0-.012-.003-.02-.003-.048 0-.088.04-.088.09 0 .013.003.025.008.036-.01-.003-.02-.005-.03-.005-.06 0-.108.048-.108.108v.007c-.008-.002-.017-.006-.027-.006-.065 0-.12.055-.12.12 0 .027.012.055.03.075-.024.01-.04.03-.04.056 0 .006 0 .013.004.02-.002-.003-.005-.003-.008-.003-.033 0-.06.026-.06.06l.003.018-.003-.002c-.044 0-.08.037-.08.08 0 .014.002.026.007.036h-.01c-.05 0-.09.04-.09.09 0 .05.04.09.09.09zm.082 6.117c.076 0 .138-.063.138-.14 0-.076-.062-.137-.138-.137-.018 0-.035.004-.05.01.017-.02.03-.048.03-.08 0-.066-.057-.122-.126-.122h-.01c0-.006.004-.016.004-.024 0-.06-.043-.107-.1-.117.005-.013.01-.026.01-.043 0-.05-.04-.09-.088-.094.01-.015.017-.03.017-.048 0-.048-.04-.085-.086-.085-.046 0-.083.037-.083.085 0 .04.03.07.07.08-.017.017-.027.04-.027.062 0 .044.028.08.067.092-.013.02-.023.042-.023.07 0 .066.055.12.122.12h.007C.824 8.432.82 8.44.82 8.45c0 .07.057.126.126.126.016 0 .03-.004.043-.01-.02.024-.036.057-.036.09 0 .077.06.14.137.14zm.233.237c.07 0 .13-.058.13-.13s-.06-.13-.13-.13c-.072 0-.13.058-.13.13s.058.13.13.13z"/></svg>