<svg xmlns="http://www.w3.org/2000/svg" width="24" height="37" viewBox="0 0 24 37"><path d="M23.437 6.928c-.128-.406-.294-.764-.483-1.1-.227-.4-.496-.78-.8-1.12-.105-.113-.38-.403-.692-.68-.238-.21-.514-.416-.65-.522-.287-.222-.61-.425-.772-.535-.843-.52-1.76-.974-2.764-1.334-.227-.082-.46-.153-.695-.22-1.252-.41-2.69-.474-2.353-.448-.43-.033-1.447-.047-2.452.076-.198.022-.75.115-1.297.26-.537.138-1.07.328-1.332.43-.687.274-1.294.588-1.362.625C5.95 3.38 4.548 4.865 3.5 6.674c-.077.13-.334.632-.543 1.15-.082.202-.17.433-.254.672-.204.585-.388 1.334-.454 1.74-.067.402-.12.907-.154 1.348-.02.24-.023.69-.018 1.108.003.326.095 1.34.166 1.76.073.43.16.888.22 1.143.043.18.196.67.296 1.11.114.504.235 1.398.245 1.468.04.3.072.578.096.992l.025.564v.44c0 .277-.014.725-.036 1.105-.01.167-.03 1.253-.07 1.46-.05.25-.126.446-.15.507-.187.514-.415.916-.747 1.33-.267.332-.708.713-1.294.604-.01 0-.018-.003-.026-.005-.1 0 .063.067.014.044l.212.1c.345.113.806-.056 1.04-.19 0 .008.003.013.005.02-.063.083-.173.127-.274.172-.473.213-1.13.066-1.486-.153l-.012.01c-.025.04.124.31.155.352.19.265.478.44.937.44.08-.003.163-.004.245-.006.157-.045.32-.066.46-.126.34-.146.59-.413.806-.686.08-.1.2-.193.25-.32l.024-.007c-.017.176-.195.337-.287.45-.31.394-.66.68-1.232.813-.267.063-.484-.058-.712-.086.008 0-.107-.022-.013.037l.152.096c.192.09.546.12.776.048.016 0 .012.04.012.022-.17.086-.372.096-.597.13l-.012.02c.024.147.116.22.223.28.037.02.117.06.183.112.085.067.235.214.26.23.104.092.207.146.32.214.376.237.778.453 1.23.618.168.063.336.07.52.132.197.067.682.103.924.04.235-.06.416-.177.627-.236.154-.043.285-.02.442-.065.45-.13.705-.198.928-.55l.018-.006c-.013.154-.105.303-.155.433-.124.327-.182.66-.294.98-.18.513-.268.98-.454 1.486-.1.267-.14.553-.25.81 0 .004-1.578 4.096-1.898 5.015 3.792 0 10.748.2 14.54.2-.02-.35-.89-6.345-.91-6.694-.044-.526-.094-1.076-.094-1.624 0-.18-.053-1.597-.187-2.442-.02-.118-.09-.48-.132-.615-.043-.135-.28-.53-.33-.61s-.11-.16-.152-.236c-.143-.208-.37-.394-.62-.494-.265-.1-.79-.178-.933-.385-.148-.213.008-.627.113-.784.17-.25.634-.652 1.135-.52.048.01.573.128.88.165.626.08 1.117.12 2.078-.092.56-.15 1.047-.367 1.348-.775l.4-.545c.135-.18.314-.377.488-.517.115-.093.24-.204.316-.332.082-.15.022-.346.022-.346-.04-.155-.16-.185-.32-.25-.013-.01-.005 0-.013-.017.19-.225.604-.243.77-.485.218-.316-.07-.842.07-1.225.063-.163.18-.284.31-.394.12-.1.253-.21.375-.328.13-.128.297-.303.435-.486.012-.014.022-.03.034-.045.137-.202.254-.496.098-.764-.205-.35-.565-.602-.924-.823.037.023-.577-.35-.82-.556-.183-.152-.342-.343-.398-.575-.098-.396-.04-.89.034-1.288-.04.217.083-.483.11-.752.056-.567-.063-1.224-.154-1.66-.004-.01-.006-.024-.008-.037 0-.04.046.006.05.01.15.12.277.303.386.46.134.195.29.405.382.643.243.616.27 1.468.185 2.28.072.02.275-.408.322-.5.182-.344.256-.626.34-1.075.02-.1.053-.254.053-.385 0 .05.002-.29-.052-.456l-.02-.067-.037-.134c-.004-.02-.003-.076.04 0 .19.33.3.887.175 1.364-.02.06-.02.11.02.05l.073-.24c.062-.197.124-.398.18-.602.08-.276.156-1.357.156-1.633v-.26c-.01-.1-.057-1.37-.266-2.04zm.262 1.996z"/></svg>